<svg style="color: rgb(170, 170, 170);" xmlns="http://www.w3.org/2000/svg" xmlns:xlink="http://www.w3.org/1999/xlink" width="40" zoomAndPan="magnify" viewBox="0 0 30 30.000001" height="40" preserveAspectRatio="xMidYMid meet" version="1.0">
	<defs>
		<g>
			<g id="id1"></g>
		</g>
	</defs>
	<g fill="rgb(0%, 0%, 0%)" fill-opacity="1">
		<g transform="translate(8.787251, 25.066918)">
			<g>
				<path d="M 6.203125 0.203125 C 4.378906 0.203125 2.972656 -0.3125 1.984375 -1.34375 C 0.992188 -2.375 0.5 -3.84375 0.5 -5.75 L 0.5 -15.515625 C 0.5 -17.554688 0.976562 -19.113281 1.9375 -20.1875 C 2.894531 -21.257812 4.316406 -21.796875 6.203125 -21.796875 C 8.117188 -21.796875 9.550781 -21.257812 10.5 -20.1875 C 11.457031 -19.113281 11.9375 -17.554688 11.9375 -15.515625 L 11.9375 -5.75 C 11.9375 -3.820312 11.441406 -2.347656 10.453125 -1.328125 C 9.460938 -0.304688 8.046875 0.203125 6.203125 0.203125 Z M 6.203125 -3.765625 C 6.523438 -3.765625 6.785156 -3.910156 6.984375 -4.203125 C 7.191406 -4.503906 7.296875 -4.851562 7.296875 -5.25 L 7.296875 -15.90625 C 7.296875 -16.53125 7.222656 -17.003906 7.078125 -17.328125 C 6.929688 -17.660156 6.640625 -17.828125 6.203125 -17.828125 C 5.773438 -17.828125 5.492188 -17.660156 5.359375 -17.328125 C 5.222656 -17.003906 5.15625 -16.53125 5.15625 -15.90625 L 5.15625 -5.25 C 5.15625 -4.851562 5.25 -4.503906 5.4375 -4.203125 C 5.632812 -3.910156 5.890625 -3.765625 6.203125 -3.765625 Z M 6.203125 -3.765625 " fill="#aaaaaa"></path>
			</g>
		</g>
	</g>
</svg>